<svg width="211" height="41" viewBox="0 0 211 41" fill="none" xmlns="http://www.w3.org/2000/svg">
<path d="M209.866 13.9556L207.782 14.5437C207.577 13.9556 207.288 13.4229 206.913 12.9457C206.538 12.4684 206.048 12.0891 205.442 11.8079C204.846 11.5266 204.104 11.386 203.218 11.386C201.888 11.386 200.798 11.7014 199.945 12.332C199.093 12.9627 198.667 13.7766 198.667 14.7738C198.667 15.6175 198.957 16.3036 199.536 16.832C200.124 17.3519 201.028 17.7653 202.246 18.0721L205.212 18.8008C206.857 19.2014 208.089 19.8363 208.907 20.7056C209.734 21.5749 210.147 22.6658 210.147 23.9783C210.147 25.0863 209.84 26.0707 209.227 26.9315C208.613 27.7923 207.756 28.4698 206.657 28.9641C205.566 29.4499 204.3 29.6928 202.86 29.6928C200.942 29.6928 199.362 29.2624 198.117 28.4016C196.873 27.5323 196.076 26.2795 195.727 24.6431L197.913 24.1062C198.194 25.2738 198.744 26.1559 199.562 26.7525C200.388 27.3491 201.475 27.6474 202.822 27.6474C204.33 27.6474 205.536 27.3107 206.44 26.6374C207.343 25.9556 207.795 25.1033 207.795 24.0806C207.795 23.288 207.531 22.6232 207.002 22.0863C206.474 21.5408 205.673 21.1403 204.599 20.8846L201.39 20.1175C199.685 19.7085 198.424 19.0607 197.606 18.1744C196.788 17.288 196.379 16.1886 196.379 14.8761C196.379 13.7937 196.673 12.8434 197.261 12.0252C197.849 11.1985 198.658 10.5508 199.69 10.082C200.721 9.61328 201.897 9.37891 203.218 9.37891C205.016 9.37891 206.452 9.788 207.526 10.6062C208.609 11.4158 209.388 12.5323 209.866 13.9556Z" fill="white"/>
<path d="M184.303 29.6928C182.548 29.6928 181.018 29.2539 179.714 28.3761C178.418 27.4982 177.413 26.2965 176.697 24.771C175.981 23.2454 175.623 21.5067 175.623 19.555C175.623 17.5863 175.985 15.8349 176.71 14.3008C177.443 12.7667 178.457 11.565 179.752 10.6957C181.048 9.81783 182.552 9.37891 184.265 9.37891C185.578 9.37891 186.767 9.63459 187.832 10.146C188.897 10.6488 189.775 11.3604 190.465 12.2809C191.164 13.1928 191.603 14.2582 191.782 15.4769H189.481C189.242 14.369 188.667 13.4229 187.755 12.6389C186.852 11.8462 185.701 11.4499 184.303 11.4499C183.051 11.4499 181.943 11.7908 180.98 12.4727C180.017 13.146 179.262 14.0877 178.717 15.2979C178.18 16.4996 177.911 17.8931 177.911 19.4783C177.911 21.0721 178.176 22.4826 178.704 23.7099C179.232 24.9286 179.974 25.8832 180.928 26.5735C181.892 27.2639 183.017 27.609 184.303 27.609C185.173 27.609 185.965 27.4471 186.681 27.1232C187.406 26.7908 188.011 26.3221 188.497 25.717C188.991 25.1119 189.323 24.3917 189.494 23.5565H191.795C191.624 24.7411 191.203 25.7979 190.529 26.7269C189.865 27.6474 188.999 28.3718 187.934 28.9002C186.877 29.4286 185.667 29.6928 184.303 29.6928Z" fill="white"/>
<path d="M168.327 29.2841V9.64773H170.615V29.2841H168.327ZM169.49 6.27273C169.022 6.27273 168.621 6.11506 168.289 5.79972C167.956 5.47585 167.79 5.08807 167.79 4.63636C167.79 4.18466 167.956 3.80114 168.289 3.4858C168.621 3.16193 169.022 3 169.49 3C169.959 3 170.36 3.16193 170.692 3.4858C171.024 3.80114 171.191 4.18466 171.191 4.63636C171.191 5.08807 171.024 5.47585 170.692 5.79972C170.36 6.11506 169.959 6.27273 169.49 6.27273Z" fill="white"/>
<path d="M163.133 9.64791V11.6294H153.763V9.64791H163.133ZM156.69 4.94336H158.979V24.1578C158.979 24.976 159.119 25.6195 159.4 26.0882C159.682 26.5485 160.048 26.8766 160.5 27.0726C160.952 27.2601 161.433 27.3539 161.945 27.3539C162.243 27.3539 162.498 27.3368 162.712 27.3027C162.925 27.2601 163.112 27.2175 163.274 27.1749L163.76 29.2331C163.538 29.3184 163.266 29.3951 162.942 29.4632C162.618 29.54 162.217 29.5783 161.74 29.5783C160.905 29.5783 160.099 29.3951 159.324 29.0286C158.557 28.6621 157.926 28.1167 157.432 27.3922C156.937 26.6678 156.69 25.7686 156.69 24.6948V4.94336Z" fill="white"/>
<path d="M136.836 36.6475C136.146 36.6475 135.498 36.5921 134.893 36.4813C134.296 36.379 133.802 36.2469 133.41 36.085L134.637 32.0196C135.276 32.2156 135.852 32.3222 136.363 32.3392C136.883 32.3563 137.33 32.237 137.705 31.9813C138.089 31.7256 138.4 31.2909 138.638 30.6773L138.958 29.8463L131.914 9.64746H137.641L141.707 24.0679H141.911L146.015 9.64746H151.781L144.148 31.406C143.782 32.4628 143.283 33.3833 142.653 34.1673C142.031 34.96 141.242 35.5693 140.288 35.9955C139.333 36.4301 138.183 36.6475 136.836 36.6475Z" fill="white"/>
<path d="M129.111 3.10254V29.2844H123.665V3.10254H129.111Z" fill="white"/>
<path d="M100.884 36.6483V9.64826H106.253V12.9466H106.496C106.735 12.4181 107.08 11.8812 107.532 11.3358C107.992 10.7818 108.588 10.3216 109.321 9.95508C110.063 9.58008 110.983 9.39258 112.083 9.39258C113.514 9.39258 114.835 9.76758 116.046 10.5176C117.256 11.2591 118.223 12.3798 118.948 13.8798C119.672 15.3713 120.034 17.242 120.034 19.492C120.034 21.6824 119.681 23.5318 118.973 25.0403C118.274 26.5403 117.32 27.6781 116.11 28.4537C114.908 29.2207 113.561 29.6042 112.07 29.6042C111.013 29.6042 110.114 29.4295 109.372 29.0801C108.639 28.7306 108.039 28.2917 107.57 27.7633C107.101 27.2264 106.743 26.6852 106.496 26.1397H106.33V36.6483H100.884ZM106.215 19.4664C106.215 20.6341 106.377 21.6525 106.701 22.5218C107.024 23.3912 107.493 24.0687 108.107 24.5545C108.72 25.0318 109.466 25.2704 110.344 25.2704C111.23 25.2704 111.98 25.0275 112.594 24.5417C113.208 24.0474 113.672 23.3656 113.987 22.4963C114.311 21.6184 114.473 20.6085 114.473 19.4664C114.473 18.3329 114.316 17.3358 114 16.475C113.685 15.6142 113.22 14.9409 112.607 14.4551C111.993 13.9693 111.239 13.7264 110.344 13.7264C109.458 13.7264 108.708 13.9608 108.094 14.4295C107.489 14.8983 107.024 15.563 106.701 16.4238C106.377 17.2846 106.215 18.2988 106.215 19.4664Z" fill="white"/>
<path d="M78.1025 36.6483V9.64826H83.4719V12.9466H83.7148C83.9534 12.4181 84.2986 11.8812 84.7503 11.3358C85.2105 10.7818 85.8071 10.3216 86.54 9.95508C87.2815 9.58008 88.202 9.39258 89.3014 9.39258C90.7332 9.39258 92.0542 9.76758 93.2645 10.5176C94.4747 11.2591 95.442 12.3798 96.1665 13.8798C96.8909 15.3713 97.2531 17.242 97.2531 19.492C97.2531 21.6824 96.8994 23.5318 96.192 25.0403C95.4932 26.5403 94.5386 27.6781 93.3284 28.4537C92.1267 29.2207 90.7801 29.6042 89.2886 29.6042C88.2318 29.6042 87.3327 29.4295 86.5912 29.0801C85.8582 28.7306 85.2574 28.2917 84.7886 27.7633C84.3199 27.2264 83.9619 26.6852 83.7148 26.1397H83.5486V36.6483H78.1025ZM83.4335 19.4664C83.4335 20.6341 83.5954 21.6525 83.9193 22.5218C84.2432 23.3912 84.7119 24.0687 85.3256 24.5545C85.9392 25.0318 86.6849 25.2704 87.5628 25.2704C88.4491 25.2704 89.1991 25.0275 89.8128 24.5417C90.4264 24.0474 90.8909 23.3656 91.2062 22.4963C91.5301 21.6184 91.692 20.6085 91.692 19.4664C91.692 18.3329 91.5344 17.3358 91.219 16.475C90.9037 15.6142 90.4392 14.9409 89.8256 14.4551C89.2119 13.9693 88.4577 13.7264 87.5628 13.7264C86.6764 13.7264 85.9264 13.9608 85.3128 14.4295C84.7077 14.8983 84.2432 15.563 83.9193 16.4238C83.5954 17.2846 83.4335 18.2988 83.4335 19.4664Z" fill="white"/>
<path d="M55.7883 29.2844H49.8564L58.8948 3.10254H66.0283L75.0539 29.2844H69.1221L62.5638 9.08549H62.3593L55.7883 29.2844ZM55.4175 18.9932H69.4289V23.3142H55.4175V18.9932Z" fill="white"/>
<path d="M17.641 33.4291L11.563 27.3511C7.26395 23.052 0 26.091 0 32.169V40.1001H35.2821V15.7881L17.641 33.4291Z" fill="white"/>
<path d="M17.641 6.67098L23.719 12.749C28.0181 17.0481 35.2821 14.0091 35.2821 7.93105V0H0V24.312L17.641 6.67098Z" fill="white"/>
</svg>
